<svg width="353" height="232" viewBox="0 0 353 232" fill="none" xmlns="http://www.w3.org/2000/svg">
<rect width="353" height="232" rx="17" fill="white"/>
<rect x="17" y="162" width="31" height="14" rx="4" fill="black"/>
<rect x="17" y="187" width="11" height="29" rx="5.5" fill="black"/>
<rect x="37" y="187" width="11" height="29" rx="5.5" fill="black"/>
<rect x="17" y="101" width="13" height="13" rx="6.5" fill="black"/>
<rect x="17" y="119" width="13" height="13" rx="6.5" fill="black"/>
<rect x="17" y="137" width="13" height="13" rx="6.5" fill="black"/>
<rect x="35" y="101" width="13" height="13" rx="6.5" fill="black"/>
<rect x="35" y="119" width="13" height="13" rx="6.5" fill="black"/>
<rect x="35" y="137" width="13" height="13" rx="6.5" fill="black"/>
<rect x="119" y="101" width="20" height="20" rx="10" fill="black"/>
<rect x="231" y="101" width="20" height="20" rx="10" fill="black"/>
<rect x="147" y="101" width="20" height="20" rx="10" fill="black"/>
<rect x="259" y="101" width="20" height="20" rx="10" fill="black"/>
<rect x="175" y="101" width="20" height="20" rx="10" fill="black"/>
<rect x="287" y="101" width="20" height="20" rx="10" fill="black"/>
<rect x="203" y="101" width="20" height="20" rx="10" fill="black"/>
<rect x="315" y="101" width="20" height="20" rx="10" fill="black"/>
<rect x="17" y="19" width="80" height="63" rx="6" fill="black"/>
<rect x="71" y="140" width="264" height="92" fill="black"/>
<rect x="88" y="140" width="2" height="92" fill="#2C2C2C"/>
<rect x="107" y="140" width="2" height="92" fill="#2C2C2C"/>
<rect x="126" y="140" width="2" height="92" fill="#2C2C2C"/>
<rect x="145" y="140" width="2" height="92" fill="#2C2C2C"/>
<rect x="164" y="140" width="2" height="92" fill="#2C2C2C"/>
<rect x="183" y="140" width="2" height="92" fill="#2C2C2C"/>
<rect x="202" y="140" width="2" height="92" fill="#2C2C2C"/>
<rect x="221" y="140" width="2" height="92" fill="#2C2C2C"/>
<rect x="240" y="140" width="2" height="92" fill="#2C2C2C"/>
<rect x="259" y="140" width="2" height="92" fill="#2C2C2C"/>
<rect x="278" y="140" width="2" height="92" fill="#2C2C2C"/>
<rect x="297" y="140" width="2" height="92" fill="#2C2C2C"/>
<rect x="316" y="140" width="2" height="92" fill="#2C2C2C"/>
<rect x="84" y="140" width="10" height="52" fill="white"/>
<rect x="141" y="140" width="10" height="52" fill="white"/>
<rect x="103" y="140" width="10" height="52" fill="white"/>
<rect x="160" y="140" width="10" height="52" fill="white"/>
<rect x="179" y="140" width="10" height="52" fill="white"/>
<rect x="217" y="140" width="10" height="52" fill="white"/>
<rect x="274" y="140" width="10" height="52" fill="white"/>
<rect x="236" y="140" width="10" height="52" fill="white"/>
<rect x="293" y="140" width="10" height="52" fill="white"/>
<rect x="312" y="140" width="10" height="52" fill="white"/>
<rect x="234" y="24" width="21.2065" height="23.8333" rx="4" fill="black"/>
<rect x="234" y="52.1667" width="21.2065" height="23.8333" rx="4" fill="black"/>
<rect x="261.384" y="24" width="21.2065" height="23.8333" rx="4" fill="black"/>
<rect x="261.384" y="52.1667" width="21.2065" height="23.8333" rx="4" fill="black"/>
<rect x="288.769" y="24" width="21.2065" height="23.8333" rx="4" fill="black"/>
<rect x="288.769" y="52.1667" width="21.2065" height="23.8333" rx="4" fill="black"/>
<rect x="316.153" y="24" width="21.2065" height="23.8333" rx="4" fill="black"/>
<rect x="316.153" y="52.1667" width="21.2065" height="23.8333" rx="4" fill="black"/>
<path fill-rule="evenodd" clip-rule="evenodd" d="M129.5 19C127.567 19 126 20.567 126 22.5V65.0218C124.196 66.1769 123 68.1988 123 70.5C123 72.8012 124.196 74.8231 126 75.9782V78.5C126 80.433 127.567 82 129.5 82C131.433 82 133 80.433 133 78.5V75.9782C134.804 74.8231 136 72.8012 136 70.5C136 68.1988 134.804 66.1769 133 65.0218V22.5C133 20.567 131.433 19 129.5 19Z" fill="black"/>
<path fill-rule="evenodd" clip-rule="evenodd" d="M153.5 19C151.567 19 150 20.567 150 22.5V38.0218C148.196 39.1769 147 41.1988 147 43.5C147 45.8012 148.196 47.8231 150 48.9782V78.5C150 80.433 151.567 82 153.5 82C155.433 82 157 80.433 157 78.5V48.9782C158.804 47.8231 160 45.8012 160 43.5C160 41.1988 158.804 39.1769 157 38.0218V22.5C157 20.567 155.433 19 153.5 19Z" fill="black"/>
<path fill-rule="evenodd" clip-rule="evenodd" d="M201.5 19C199.567 19 198 20.567 198 22.5V38.0218C196.196 39.1769 195 41.1988 195 43.5C195 45.8012 196.196 47.8231 198 48.9782V78.5C198 80.433 199.567 82 201.5 82C203.433 82 205 80.433 205 78.5V48.9782C206.804 47.8231 208 45.8012 208 43.5C208 41.1988 206.804 39.1769 205 38.0218V22.5C205 20.567 203.433 19 201.5 19Z" fill="black"/>
<path fill-rule="evenodd" clip-rule="evenodd" d="M177.5 19C175.567 19 174 20.567 174 22.5V51.0218C172.196 52.1769 171 54.1988 171 56.5C171 58.8012 172.196 60.8231 174 61.9782V78.5C174 80.433 175.567 82 177.5 82C179.433 82 181 80.433 181 78.5V61.9782C182.804 60.8231 184 58.8012 184 56.5C184 54.1988 182.804 52.1769 181 51.0218V22.5C181 20.567 179.433 19 177.5 19Z" fill="black"/>
</svg>
